<mxfile host="app.diagrams.net" modified="2020-11-13T19:53:22.445Z" agent="5.0 (X11)" etag="fUMWSLrl_ExSlXgNKjcD" version="13.9.7" type="github">
  <diagram id="cCk7_auXHU_CZTxWtfFX" name="Page-1">
    <mxGraphModel dx="2216" dy="844" grid="1" gridSize="10" guides="1" tooltips="1" connect="1" arrows="1" fold="1" page="1" pageScale="1" pageWidth="1600" pageHeight="900" math="0" shadow="0">
      <root>
        <mxCell id="0" />
        <mxCell id="1" parent="0" />
        <mxCell id="Xc1ay_7yRxXx6vF0XpAz-1" value="Cliente" style="whiteSpace=wrap;html=1;align=center;" parent="1" vertex="1">
          <mxGeometry x="280" y="160" width="120" height="40" as="geometry" />
        </mxCell>
        <mxCell id="Xc1ay_7yRxXx6vF0XpAz-2" value="nombre" style="ellipse;whiteSpace=wrap;html=1;align=center;" parent="1" vertex="1">
          <mxGeometry x="120" y="80" width="120" height="40" as="geometry" />
        </mxCell>
        <mxCell id="Xc1ay_7yRxXx6vF0XpAz-3" value="idCliente" style="ellipse;whiteSpace=wrap;html=1;align=center;fontStyle=4;" parent="1" vertex="1">
          <mxGeometry x="280" y="40" width="120" height="40" as="geometry" />
        </mxCell>
        <mxCell id="Xc1ay_7yRxXx6vF0XpAz-5" value="telefono" style="ellipse;whiteSpace=wrap;html=1;align=center;" parent="1" vertex="1">
          <mxGeometry x="120" y="240" width="120" height="40" as="geometry" />
        </mxCell>
        <mxCell id="Xc1ay_7yRxXx6vF0XpAz-6" value="&lt;div&gt;correo&lt;/div&gt;" style="ellipse;whiteSpace=wrap;html=1;align=center;" parent="1" vertex="1">
          <mxGeometry x="280" y="280" width="120" height="40" as="geometry" />
        </mxCell>
        <mxCell id="Xc1ay_7yRxXx6vF0XpAz-7" value="" style="endArrow=none;html=1;rounded=0;entryX=0.5;entryY=1;entryDx=0;entryDy=0;curved=1;" parent="1" source="Xc1ay_7yRxXx6vF0XpAz-1" target="Xc1ay_7yRxXx6vF0XpAz-3" edge="1">
          <mxGeometry relative="1" as="geometry">
            <mxPoint x="340" y="159" as="sourcePoint" />
            <mxPoint x="334" y="82" as="targetPoint" />
          </mxGeometry>
        </mxCell>
        <mxCell id="Xc1ay_7yRxXx6vF0XpAz-9" value="" style="endArrow=none;html=1;rounded=0;entryX=0;entryY=1;entryDx=0;entryDy=0;exitX=1;exitY=0.5;exitDx=0;exitDy=0;curved=1;" parent="1" source="Xc1ay_7yRxXx6vF0XpAz-5" target="Xc1ay_7yRxXx6vF0XpAz-1" edge="1">
          <mxGeometry relative="1" as="geometry">
            <mxPoint x="240" y="260" as="sourcePoint" />
            <mxPoint x="400" y="260" as="targetPoint" />
          </mxGeometry>
        </mxCell>
        <mxCell id="Xc1ay_7yRxXx6vF0XpAz-10" value="" style="endArrow=none;html=1;rounded=0;curved=1;" parent="1" source="Xc1ay_7yRxXx6vF0XpAz-1" target="Xc1ay_7yRxXx6vF0XpAz-6" edge="1">
          <mxGeometry relative="1" as="geometry">
            <mxPoint x="340" y="200" as="sourcePoint" />
            <mxPoint x="500" y="200" as="targetPoint" />
          </mxGeometry>
        </mxCell>
        <mxCell id="Xc1ay_7yRxXx6vF0XpAz-11" value="" style="endArrow=none;html=1;rounded=0;entryX=0;entryY=0;entryDx=0;entryDy=0;exitX=1;exitY=0.5;exitDx=0;exitDy=0;curved=1;" parent="1" source="Xc1ay_7yRxXx6vF0XpAz-2" target="Xc1ay_7yRxXx6vF0XpAz-1" edge="1">
          <mxGeometry relative="1" as="geometry">
            <mxPoint x="240" y="110" as="sourcePoint" />
            <mxPoint x="400" y="100" as="targetPoint" />
          </mxGeometry>
        </mxCell>
        <mxCell id="Xc1ay_7yRxXx6vF0XpAz-12" value="" style="endArrow=none;html=1;rounded=0;entryX=0;entryY=0.5;entryDx=0;entryDy=0;curved=1;" parent="1" target="Xc1ay_7yRxXx6vF0XpAz-1" edge="1">
          <mxGeometry relative="1" as="geometry">
            <mxPoint x="200" y="180" as="sourcePoint" />
            <mxPoint x="360" y="180" as="targetPoint" />
          </mxGeometry>
        </mxCell>
        <mxCell id="Xc1ay_7yRxXx6vF0XpAz-13" value="" style="endArrow=none;html=1;rounded=0;curved=1;" parent="1" source="Xc1ay_7yRxXx6vF0XpAz-1" target="Xc1ay_7yRxXx6vF0XpAz-14" edge="1">
          <mxGeometry relative="1" as="geometry">
            <mxPoint x="410" y="180" as="sourcePoint" />
            <mxPoint x="570" y="180" as="targetPoint" />
          </mxGeometry>
        </mxCell>
        <mxCell id="Xc1ay_7yRxXx6vF0XpAz-14" value="Hace" style="shape=rhombus;perimeter=rhombusPerimeter;whiteSpace=wrap;html=1;align=center;" parent="1" vertex="1">
          <mxGeometry x="600" y="160" width="120" height="40" as="geometry" />
        </mxCell>
        <mxCell id="Xc1ay_7yRxXx6vF0XpAz-16" value="" style="endArrow=none;html=1;rounded=0;curved=1;" parent="1" source="Xc1ay_7yRxXx6vF0XpAz-14" target="Xc1ay_7yRxXx6vF0XpAz-17" edge="1">
          <mxGeometry relative="1" as="geometry">
            <mxPoint x="750" y="180" as="sourcePoint" />
            <mxPoint x="910" y="180" as="targetPoint" />
          </mxGeometry>
        </mxCell>
        <mxCell id="Xc1ay_7yRxXx6vF0XpAz-17" value="Pedido" style="whiteSpace=wrap;html=1;align=center;" parent="1" vertex="1">
          <mxGeometry x="960" y="160" width="120" height="40" as="geometry" />
        </mxCell>
        <mxCell id="Xc1ay_7yRxXx6vF0XpAz-18" value="1:N" style="text;strokeColor=none;fillColor=none;spacingLeft=4;spacingRight=4;overflow=hidden;rotatable=0;points=[[0,0.5],[1,0.5]];portConstraint=eastwest;fontSize=12;" parent="1" vertex="1">
          <mxGeometry x="640" y="130" width="40" height="30" as="geometry" />
        </mxCell>
        <mxCell id="Xc1ay_7yRxXx6vF0XpAz-19" value="idPedido" style="ellipse;whiteSpace=wrap;html=1;align=center;fontStyle=4;" parent="1" vertex="1">
          <mxGeometry x="960" y="40" width="120" height="40" as="geometry" />
        </mxCell>
        <mxCell id="Xc1ay_7yRxXx6vF0XpAz-20" value="direccionCliente" style="ellipse;whiteSpace=wrap;html=1;align=center;" parent="1" vertex="1">
          <mxGeometry x="1110" y="80" width="120" height="40" as="geometry" />
        </mxCell>
        <mxCell id="Xc1ay_7yRxXx6vF0XpAz-21" value="fechaPedido" style="ellipse;whiteSpace=wrap;html=1;align=center;" parent="1" vertex="1">
          <mxGeometry x="800" y="80" width="120" height="40" as="geometry" />
        </mxCell>
        <mxCell id="Xc1ay_7yRxXx6vF0XpAz-22" value="direccion" style="ellipse;shape=doubleEllipse;margin=3;whiteSpace=wrap;html=1;align=center;" parent="1" vertex="1">
          <mxGeometry x="80" y="160" width="120" height="40" as="geometry" />
        </mxCell>
        <mxCell id="Xc1ay_7yRxXx6vF0XpAz-23" value="" style="endArrow=none;html=1;rounded=0;curved=1;" parent="1" source="Xc1ay_7yRxXx6vF0XpAz-17" target="Xc1ay_7yRxXx6vF0XpAz-19" edge="1">
          <mxGeometry relative="1" as="geometry">
            <mxPoint x="860" y="80" as="sourcePoint" />
            <mxPoint x="1020" y="80" as="targetPoint" />
          </mxGeometry>
        </mxCell>
        <mxCell id="Xc1ay_7yRxXx6vF0XpAz-24" value="" style="endArrow=none;html=1;rounded=0;exitX=1;exitY=0.5;exitDx=0;exitDy=0;entryX=0.5;entryY=0;entryDx=0;entryDy=0;curved=1;" parent="1" source="Xc1ay_7yRxXx6vF0XpAz-21" target="Xc1ay_7yRxXx6vF0XpAz-17" edge="1">
          <mxGeometry relative="1" as="geometry">
            <mxPoint x="860" y="200" as="sourcePoint" />
            <mxPoint x="1020" y="200" as="targetPoint" />
          </mxGeometry>
        </mxCell>
        <mxCell id="Xc1ay_7yRxXx6vF0XpAz-25" value="" style="endArrow=none;html=1;rounded=0;entryX=0;entryY=0.5;entryDx=0;entryDy=0;exitX=0.5;exitY=0;exitDx=0;exitDy=0;curved=1;" parent="1" source="Xc1ay_7yRxXx6vF0XpAz-17" target="Xc1ay_7yRxXx6vF0XpAz-20" edge="1">
          <mxGeometry relative="1" as="geometry">
            <mxPoint x="1020" y="200" as="sourcePoint" />
            <mxPoint x="1180" y="200" as="targetPoint" />
          </mxGeometry>
        </mxCell>
        <mxCell id="Xc1ay_7yRxXx6vF0XpAz-26" value="" style="endArrow=none;html=1;rounded=0;entryX=0;entryY=0.5;entryDx=0;entryDy=0;curved=1;" parent="1" source="Xc1ay_7yRxXx6vF0XpAz-17" target="Xc1ay_7yRxXx6vF0XpAz-27" edge="1">
          <mxGeometry relative="1" as="geometry">
            <mxPoint x="1000" y="180" as="sourcePoint" />
            <mxPoint x="1160" y="180" as="targetPoint" />
          </mxGeometry>
        </mxCell>
        <mxCell id="Xc1ay_7yRxXx6vF0XpAz-27" value="Tiene" style="shape=rhombus;perimeter=rhombusPerimeter;whiteSpace=wrap;html=1;align=center;" parent="1" vertex="1">
          <mxGeometry x="1460" y="160" width="120" height="40" as="geometry" />
        </mxCell>
        <mxCell id="Xc1ay_7yRxXx6vF0XpAz-28" value="N" style="text;strokeColor=none;fillColor=none;spacingLeft=4;spacingRight=4;overflow=hidden;rotatable=0;points=[[0,0.5],[1,0.5]];portConstraint=eastwest;fontSize=12;" parent="1" vertex="1">
          <mxGeometry x="1520" y="130" width="40" height="30" as="geometry" />
        </mxCell>
        <mxCell id="Xc1ay_7yRxXx6vF0XpAz-29" value="" style="endArrow=none;html=1;rounded=0;curved=1;" parent="1" source="Xc1ay_7yRxXx6vF0XpAz-27" target="Xc1ay_7yRxXx6vF0XpAz-32" edge="1">
          <mxGeometry relative="1" as="geometry">
            <mxPoint x="1570" y="210" as="sourcePoint" />
            <mxPoint x="1710" y="170" as="targetPoint" />
          </mxGeometry>
        </mxCell>
        <mxCell id="Xc1ay_7yRxXx6vF0XpAz-30" value="&lt;div&gt;cantidad&lt;/div&gt;" style="ellipse;whiteSpace=wrap;html=1;align=center;" parent="1" vertex="1">
          <mxGeometry x="1360" y="280" width="120" height="40" as="geometry" />
        </mxCell>
        <mxCell id="Xc1ay_7yRxXx6vF0XpAz-31" value="" style="endArrow=none;html=1;rounded=0;exitX=0.5;exitY=0;exitDx=0;exitDy=0;curved=1;" parent="1" source="Xc1ay_7yRxXx6vF0XpAz-30" edge="1">
          <mxGeometry relative="1" as="geometry">
            <mxPoint x="1360" y="200" as="sourcePoint" />
            <mxPoint x="1520" y="200" as="targetPoint" />
          </mxGeometry>
        </mxCell>
        <mxCell id="Xc1ay_7yRxXx6vF0XpAz-32" value="Producto" style="whiteSpace=wrap;html=1;align=center;" parent="1" vertex="1">
          <mxGeometry x="2040" y="160" width="120" height="40" as="geometry" />
        </mxCell>
        <mxCell id="Xc1ay_7yRxXx6vF0XpAz-33" value="nombre" style="ellipse;whiteSpace=wrap;html=1;align=center;" parent="1" vertex="1">
          <mxGeometry x="2160" y="80" width="120" height="40" as="geometry" />
        </mxCell>
        <mxCell id="Xc1ay_7yRxXx6vF0XpAz-34" value="idProducto" style="ellipse;whiteSpace=wrap;html=1;align=center;fontStyle=4;" parent="1" vertex="1">
          <mxGeometry x="2040" y="40" width="120" height="40" as="geometry" />
        </mxCell>
        <mxCell id="Xc1ay_7yRxXx6vF0XpAz-35" value="unidaMedida" style="ellipse;whiteSpace=wrap;html=1;align=center;" parent="1" vertex="1">
          <mxGeometry x="1920" y="80" width="120" height="40" as="geometry" />
        </mxCell>
        <mxCell id="Xc1ay_7yRxXx6vF0XpAz-37" value="descripcion" style="ellipse;whiteSpace=wrap;html=1;align=center;" parent="1" vertex="1">
          <mxGeometry x="2120" y="280" width="120" height="40" as="geometry" />
        </mxCell>
        <mxCell id="Xc1ay_7yRxXx6vF0XpAz-38" value="precio" style="ellipse;whiteSpace=wrap;html=1;align=center;" parent="1" vertex="1">
          <mxGeometry x="1960" y="280" width="120" height="40" as="geometry" />
        </mxCell>
        <mxCell id="Xc1ay_7yRxXx6vF0XpAz-40" value="" style="endArrow=none;html=1;rounded=0;entryX=0.364;entryY=0.004;entryDx=0;entryDy=0;entryPerimeter=0;exitX=1;exitY=0.5;exitDx=0;exitDy=0;curved=1;" parent="1" source="Xc1ay_7yRxXx6vF0XpAz-35" target="Xc1ay_7yRxXx6vF0XpAz-32" edge="1">
          <mxGeometry relative="1" as="geometry">
            <mxPoint x="2000" y="100" as="sourcePoint" />
            <mxPoint x="2160" y="100" as="targetPoint" />
          </mxGeometry>
        </mxCell>
        <mxCell id="Xc1ay_7yRxXx6vF0XpAz-41" value="" style="endArrow=none;html=1;rounded=0;entryX=0;entryY=0.5;entryDx=0;entryDy=0;exitX=0.663;exitY=0.004;exitDx=0;exitDy=0;exitPerimeter=0;curved=1;" parent="1" source="Xc1ay_7yRxXx6vF0XpAz-32" target="Xc1ay_7yRxXx6vF0XpAz-33" edge="1">
          <mxGeometry relative="1" as="geometry">
            <mxPoint x="2040" y="100" as="sourcePoint" />
            <mxPoint x="2200" y="100" as="targetPoint" />
          </mxGeometry>
        </mxCell>
        <mxCell id="Xc1ay_7yRxXx6vF0XpAz-42" value="" style="endArrow=none;html=1;rounded=0;exitX=0.5;exitY=0;exitDx=0;exitDy=0;entryX=0.5;entryY=1;entryDx=0;entryDy=0;curved=1;" parent="1" source="Xc1ay_7yRxXx6vF0XpAz-32" target="Xc1ay_7yRxXx6vF0XpAz-34" edge="1">
          <mxGeometry relative="1" as="geometry">
            <mxPoint x="1950" y="80" as="sourcePoint" />
            <mxPoint x="2110" y="80" as="targetPoint" />
          </mxGeometry>
        </mxCell>
        <mxCell id="Xc1ay_7yRxXx6vF0XpAz-43" value="" style="endArrow=none;html=1;rounded=0;entryX=0.5;entryY=1;entryDx=0;entryDy=0;exitX=0.5;exitY=0;exitDx=0;exitDy=0;curved=1;" parent="1" source="Xc1ay_7yRxXx6vF0XpAz-38" target="Xc1ay_7yRxXx6vF0XpAz-32" edge="1">
          <mxGeometry relative="1" as="geometry">
            <mxPoint x="2020" y="280" as="sourcePoint" />
            <mxPoint x="2180" y="280" as="targetPoint" />
          </mxGeometry>
        </mxCell>
        <mxCell id="Xc1ay_7yRxXx6vF0XpAz-44" value="" style="endArrow=none;html=1;rounded=0;entryX=0.5;entryY=0;entryDx=0;entryDy=0;curved=1;" parent="1" target="Xc1ay_7yRxXx6vF0XpAz-37" edge="1">
          <mxGeometry relative="1" as="geometry">
            <mxPoint x="2100" y="200" as="sourcePoint" />
            <mxPoint x="2260" y="200" as="targetPoint" />
          </mxGeometry>
        </mxCell>
        <mxCell id="Xc1ay_7yRxXx6vF0XpAz-45" value="" style="endArrow=none;html=1;rounded=0;curved=1;" parent="1" source="Xc1ay_7yRxXx6vF0XpAz-32" target="Xc1ay_7yRxXx6vF0XpAz-47" edge="1">
          <mxGeometry relative="1" as="geometry">
            <mxPoint x="2180" y="170.21" as="sourcePoint" />
            <mxPoint x="2350" y="170" as="targetPoint" />
          </mxGeometry>
        </mxCell>
        <mxCell id="Xc1ay_7yRxXx6vF0XpAz-47" value="Distrubuido" style="shape=rhombus;perimeter=rhombusPerimeter;whiteSpace=wrap;html=1;align=center;" parent="1" vertex="1">
          <mxGeometry x="2480" y="160" width="120" height="40" as="geometry" />
        </mxCell>
        <mxCell id="Xc1ay_7yRxXx6vF0XpAz-48" value="" style="endArrow=none;html=1;rounded=0;curved=1;" parent="1" source="Xc1ay_7yRxXx6vF0XpAz-47" target="Xc1ay_7yRxXx6vF0XpAz-49" edge="1">
          <mxGeometry relative="1" as="geometry">
            <mxPoint x="2600" y="170" as="sourcePoint" />
            <mxPoint x="2760" y="170" as="targetPoint" />
          </mxGeometry>
        </mxCell>
        <mxCell id="Xc1ay_7yRxXx6vF0XpAz-49" value="Distribuidor" style="whiteSpace=wrap;html=1;align=center;" parent="1" vertex="1">
          <mxGeometry x="2880" y="160" width="120" height="40" as="geometry" />
        </mxCell>
        <mxCell id="Xc1ay_7yRxXx6vF0XpAz-51" value="cantidadDisponible" style="ellipse;whiteSpace=wrap;html=1;align=center;" parent="1" vertex="1">
          <mxGeometry x="2480" y="280" width="120" height="40" as="geometry" />
        </mxCell>
        <mxCell id="Xc1ay_7yRxXx6vF0XpAz-52" value="" style="endArrow=none;html=1;rounded=0;curved=1;" parent="1" source="Xc1ay_7yRxXx6vF0XpAz-51" target="Xc1ay_7yRxXx6vF0XpAz-47" edge="1">
          <mxGeometry relative="1" as="geometry">
            <mxPoint x="2500" y="110" as="sourcePoint" />
            <mxPoint x="2660" y="110" as="targetPoint" />
          </mxGeometry>
        </mxCell>
        <mxCell id="Xc1ay_7yRxXx6vF0XpAz-53" value="N:N" style="text;strokeColor=none;fillColor=none;spacingLeft=4;spacingRight=4;overflow=hidden;rotatable=0;points=[[0,0.5],[1,0.5]];portConstraint=eastwest;fontSize=12;" parent="1" vertex="1">
          <mxGeometry x="2520" y="130" width="40" height="30" as="geometry" />
        </mxCell>
        <mxCell id="Xc1ay_7yRxXx6vF0XpAz-54" value="idDistribuidor" style="ellipse;whiteSpace=wrap;html=1;align=center;fontStyle=4;" parent="1" vertex="1">
          <mxGeometry x="2880" y="40" width="120" height="40" as="geometry" />
        </mxCell>
        <mxCell id="Xc1ay_7yRxXx6vF0XpAz-55" value="rtn" style="ellipse;whiteSpace=wrap;html=1;align=center;" parent="1" vertex="1">
          <mxGeometry x="2760" y="80" width="120" height="40" as="geometry" />
        </mxCell>
        <mxCell id="Xc1ay_7yRxXx6vF0XpAz-56" value="nombre" style="ellipse;whiteSpace=wrap;html=1;align=center;" parent="1" vertex="1">
          <mxGeometry x="3000" y="80" width="120" height="40" as="geometry" />
        </mxCell>
        <mxCell id="Xc1ay_7yRxXx6vF0XpAz-57" value="&lt;div&gt;correo&lt;/div&gt;" style="ellipse;whiteSpace=wrap;html=1;align=center;" parent="1" vertex="1">
          <mxGeometry x="2880" y="280" width="120" height="40" as="geometry" />
        </mxCell>
        <mxCell id="Xc1ay_7yRxXx6vF0XpAz-59" value="" style="endArrow=none;html=1;rounded=0;entryX=0.5;entryY=1;entryDx=0;entryDy=0;exitX=0.5;exitY=0;exitDx=0;exitDy=0;curved=1;" parent="1" source="Xc1ay_7yRxXx6vF0XpAz-49" target="Xc1ay_7yRxXx6vF0XpAz-54" edge="1">
          <mxGeometry relative="1" as="geometry">
            <mxPoint x="2850" y="140" as="sourcePoint" />
            <mxPoint x="3010" y="140" as="targetPoint" />
          </mxGeometry>
        </mxCell>
        <mxCell id="Xc1ay_7yRxXx6vF0XpAz-60" value="" style="endArrow=none;html=1;rounded=0;entryX=0.5;entryY=0;entryDx=0;entryDy=0;exitX=1;exitY=0.5;exitDx=0;exitDy=0;curved=1;" parent="1" source="Xc1ay_7yRxXx6vF0XpAz-55" target="Xc1ay_7yRxXx6vF0XpAz-49" edge="1">
          <mxGeometry relative="1" as="geometry">
            <mxPoint x="2880" y="100" as="sourcePoint" />
            <mxPoint x="3040" y="100" as="targetPoint" />
          </mxGeometry>
        </mxCell>
        <mxCell id="Xc1ay_7yRxXx6vF0XpAz-61" value="" style="endArrow=none;html=1;rounded=0;exitX=0.5;exitY=0;exitDx=0;exitDy=0;entryX=0;entryY=0.5;entryDx=0;entryDy=0;curved=1;" parent="1" source="Xc1ay_7yRxXx6vF0XpAz-49" target="Xc1ay_7yRxXx6vF0XpAz-56" edge="1">
          <mxGeometry relative="1" as="geometry">
            <mxPoint x="2840" y="100" as="sourcePoint" />
            <mxPoint x="3000" y="100" as="targetPoint" />
          </mxGeometry>
        </mxCell>
        <mxCell id="Xc1ay_7yRxXx6vF0XpAz-62" value="" style="endArrow=none;html=1;rounded=0;entryX=0.5;entryY=1;entryDx=0;entryDy=0;exitX=0.5;exitY=0;exitDx=0;exitDy=0;curved=1;" parent="1" source="Xc1ay_7yRxXx6vF0XpAz-57" target="Xc1ay_7yRxXx6vF0XpAz-49" edge="1">
          <mxGeometry relative="1" as="geometry">
            <mxPoint x="2860" y="280" as="sourcePoint" />
            <mxPoint x="3020" y="280" as="targetPoint" />
          </mxGeometry>
        </mxCell>
        <mxCell id="Xc1ay_7yRxXx6vF0XpAz-69" value="Empleado" style="whiteSpace=wrap;html=1;align=center;" parent="1" vertex="1">
          <mxGeometry x="560" y="680" width="120" height="40" as="geometry" />
        </mxCell>
        <mxCell id="Xc1ay_7yRxXx6vF0XpAz-70" value="nombre" style="ellipse;whiteSpace=wrap;html=1;align=center;" parent="1" vertex="1">
          <mxGeometry x="720" y="600" width="120" height="40" as="geometry" />
        </mxCell>
        <mxCell id="Xc1ay_7yRxXx6vF0XpAz-71" value="idEmpleado" style="ellipse;whiteSpace=wrap;html=1;align=center;fontStyle=4;" parent="1" vertex="1">
          <mxGeometry x="720" y="760" width="120" height="40" as="geometry" />
        </mxCell>
        <mxCell id="Xc1ay_7yRxXx6vF0XpAz-72" value="telefono" style="ellipse;whiteSpace=wrap;html=1;align=center;" parent="1" vertex="1">
          <mxGeometry x="400" y="600" width="120" height="40" as="geometry" />
        </mxCell>
        <mxCell id="Xc1ay_7yRxXx6vF0XpAz-73" value="&lt;div&gt;correo&lt;/div&gt;" style="ellipse;whiteSpace=wrap;html=1;align=center;" parent="1" vertex="1">
          <mxGeometry x="400" y="760" width="120" height="40" as="geometry" />
        </mxCell>
        <mxCell id="Xc1ay_7yRxXx6vF0XpAz-76" value="fechaEnvio" style="ellipse;whiteSpace=wrap;html=1;align=center;" parent="1" vertex="1">
          <mxGeometry x="1460" y="40" width="120" height="40" as="geometry" />
        </mxCell>
        <mxCell id="Xc1ay_7yRxXx6vF0XpAz-78" value="" style="endArrow=none;html=1;rounded=0;exitX=0.5;exitY=0;exitDx=0;exitDy=0;entryX=0.5;entryY=1;entryDx=0;entryDy=0;curved=1;" parent="1" source="Xc1ay_7yRxXx6vF0XpAz-27" target="Xc1ay_7yRxXx6vF0XpAz-76" edge="1">
          <mxGeometry relative="1" as="geometry">
            <mxPoint x="1600" y="65" as="sourcePoint" />
            <mxPoint x="1800" y="65" as="targetPoint" />
          </mxGeometry>
        </mxCell>
        <mxCell id="Xc1ay_7yRxXx6vF0XpAz-84" value="" style="endArrow=none;html=1;rounded=0;exitX=1;exitY=0.5;exitDx=0;exitDy=0;entryX=0;entryY=0;entryDx=0;entryDy=0;curved=1;" parent="1" source="Xc1ay_7yRxXx6vF0XpAz-72" target="Xc1ay_7yRxXx6vF0XpAz-69" edge="1">
          <mxGeometry relative="1" as="geometry">
            <mxPoint x="470" y="730" as="sourcePoint" />
            <mxPoint x="630" y="730" as="targetPoint" />
          </mxGeometry>
        </mxCell>
        <mxCell id="Xc1ay_7yRxXx6vF0XpAz-85" value="" style="endArrow=none;html=1;rounded=0;entryX=0;entryY=1;entryDx=0;entryDy=0;exitX=1;exitY=0.5;exitDx=0;exitDy=0;curved=1;" parent="1" source="Xc1ay_7yRxXx6vF0XpAz-73" target="Xc1ay_7yRxXx6vF0XpAz-69" edge="1">
          <mxGeometry relative="1" as="geometry">
            <mxPoint x="500" y="760" as="sourcePoint" />
            <mxPoint x="660" y="760" as="targetPoint" />
          </mxGeometry>
        </mxCell>
        <mxCell id="Xc1ay_7yRxXx6vF0XpAz-86" value="" style="endArrow=none;html=1;rounded=0;exitX=1;exitY=1;exitDx=0;exitDy=0;entryX=0;entryY=0.5;entryDx=0;entryDy=0;curved=1;" parent="1" source="Xc1ay_7yRxXx6vF0XpAz-69" target="Xc1ay_7yRxXx6vF0XpAz-71" edge="1">
          <mxGeometry relative="1" as="geometry">
            <mxPoint x="600" y="770" as="sourcePoint" />
            <mxPoint x="760" y="770" as="targetPoint" />
          </mxGeometry>
        </mxCell>
        <mxCell id="Xc1ay_7yRxXx6vF0XpAz-88" value="" style="endArrow=none;html=1;rounded=0;entryX=0;entryY=0.5;entryDx=0;entryDy=0;exitX=1;exitY=0;exitDx=0;exitDy=0;curved=1;" parent="1" source="Xc1ay_7yRxXx6vF0XpAz-69" target="Xc1ay_7yRxXx6vF0XpAz-70" edge="1">
          <mxGeometry relative="1" as="geometry">
            <mxPoint x="680" y="680" as="sourcePoint" />
            <mxPoint x="840" y="680" as="targetPoint" />
          </mxGeometry>
        </mxCell>
        <mxCell id="GpEKOkZ7wer3zeVSZ71q-1" value="precio" style="ellipse;whiteSpace=wrap;html=1;align=center;" parent="1" vertex="1">
          <mxGeometry x="1560" y="280" width="120" height="40" as="geometry" />
        </mxCell>
        <mxCell id="GpEKOkZ7wer3zeVSZ71q-2" value="" style="endArrow=none;html=1;rounded=0;entryX=0.5;entryY=0;entryDx=0;entryDy=0;curved=1;" parent="1" target="GpEKOkZ7wer3zeVSZ71q-1" edge="1">
          <mxGeometry relative="1" as="geometry">
            <mxPoint x="1520" y="200" as="sourcePoint" />
            <mxPoint x="1680" y="200" as="targetPoint" />
          </mxGeometry>
        </mxCell>
        <mxCell id="-bIWdMpBVQGjIKiIp2WV-4" value="N" style="text;strokeColor=none;fillColor=none;spacingLeft=4;spacingRight=4;overflow=hidden;rotatable=0;points=[[0,0.5],[1,0.5]];portConstraint=eastwest;fontSize=12;" parent="1" vertex="1">
          <mxGeometry x="1500" y="130" width="40" height="30" as="geometry" />
        </mxCell>
        <mxCell id="-bIWdMpBVQGjIKiIp2WV-14" value="cargoPedido" style="ellipse;whiteSpace=wrap;html=1;align=center;" parent="1" vertex="1">
          <mxGeometry x="1480" y="760" width="120" height="40" as="geometry" />
        </mxCell>
        <mxCell id="-bIWdMpBVQGjIKiIp2WV-15" value="" style="endArrow=none;html=1;rounded=0;exitX=0.5;exitY=1;exitDx=0;exitDy=0;entryX=0.5;entryY=0;entryDx=0;entryDy=0;curved=1;" parent="1" source="Xc1ay_7yRxXx6vF0XpAz-17" target="-bIWdMpBVQGjIKiIp2WV-17" edge="1">
          <mxGeometry relative="1" as="geometry">
            <mxPoint x="870" y="270" as="sourcePoint" />
            <mxPoint x="670" y="470" as="targetPoint" />
          </mxGeometry>
        </mxCell>
        <mxCell id="-bIWdMpBVQGjIKiIp2WV-16" value="cargoEnvio" style="ellipse;whiteSpace=wrap;html=1;align=center;" parent="1" vertex="1">
          <mxGeometry x="1480" y="560" width="120" height="40" as="geometry" />
        </mxCell>
        <mxCell id="-bIWdMpBVQGjIKiIp2WV-17" value="Supervisado" style="shape=rhombus;perimeter=rhombusPerimeter;whiteSpace=wrap;html=1;align=center;" parent="1" vertex="1">
          <mxGeometry x="560" y="480" width="120" height="40" as="geometry" />
        </mxCell>
        <mxCell id="-bIWdMpBVQGjIKiIp2WV-18" value="" style="endArrow=none;html=1;rounded=0;exitX=0.5;exitY=1;exitDx=0;exitDy=0;curved=1;" parent="1" source="-bIWdMpBVQGjIKiIp2WV-17" target="Xc1ay_7yRxXx6vF0XpAz-69" edge="1">
          <mxGeometry relative="1" as="geometry">
            <mxPoint x="560" y="610" as="sourcePoint" />
            <mxPoint x="720" y="610" as="targetPoint" />
          </mxGeometry>
        </mxCell>
        <mxCell id="-bIWdMpBVQGjIKiIp2WV-20" value="rol" style="ellipse;whiteSpace=wrap;html=1;align=center;" parent="1" vertex="1">
          <mxGeometry x="560" y="840" width="120" height="40" as="geometry" />
        </mxCell>
        <mxCell id="-bIWdMpBVQGjIKiIp2WV-21" value="" style="endArrow=none;html=1;rounded=0;entryX=0.5;entryY=1;entryDx=0;entryDy=0;exitX=0.5;exitY=0;exitDx=0;exitDy=0;curved=1;" parent="1" source="-bIWdMpBVQGjIKiIp2WV-20" target="Xc1ay_7yRxXx6vF0XpAz-69" edge="1">
          <mxGeometry relative="1" as="geometry">
            <mxPoint x="620" y="840" as="sourcePoint" />
            <mxPoint x="700" y="750" as="targetPoint" />
          </mxGeometry>
        </mxCell>
        <mxCell id="-bIWdMpBVQGjIKiIp2WV-22" value="Genera" style="shape=rhombus;perimeter=rhombusPerimeter;whiteSpace=wrap;html=1;align=center;" parent="1" vertex="1">
          <mxGeometry x="1320" y="480" width="120" height="40" as="geometry" />
        </mxCell>
        <mxCell id="-bIWdMpBVQGjIKiIp2WV-23" value="" style="endArrow=none;html=1;rounded=0;exitX=0.5;exitY=0;exitDx=0;exitDy=0;curved=1;" parent="1" source="-bIWdMpBVQGjIKiIp2WV-22" target="Xc1ay_7yRxXx6vF0XpAz-17" edge="1">
          <mxGeometry relative="1" as="geometry">
            <mxPoint x="1020" y="200" as="sourcePoint" />
            <mxPoint x="1150" y="340" as="targetPoint" />
          </mxGeometry>
        </mxCell>
        <mxCell id="-bIWdMpBVQGjIKiIp2WV-24" value="OrdenEntrega" style="whiteSpace=wrap;html=1;align=center;" parent="1" vertex="1">
          <mxGeometry x="1320" y="680" width="120" height="40" as="geometry" />
        </mxCell>
        <mxCell id="-bIWdMpBVQGjIKiIp2WV-25" value="" style="endArrow=none;html=1;rounded=0;exitX=0.5;exitY=1;exitDx=0;exitDy=0;curved=1;" parent="1" source="-bIWdMpBVQGjIKiIp2WV-22" target="-bIWdMpBVQGjIKiIp2WV-24" edge="1">
          <mxGeometry relative="1" as="geometry">
            <mxPoint x="1270" y="590" as="sourcePoint" />
            <mxPoint x="1430" y="590" as="targetPoint" />
          </mxGeometry>
        </mxCell>
        <mxCell id="-bIWdMpBVQGjIKiIp2WV-28" value="fechaEntrega" style="ellipse;whiteSpace=wrap;html=1;align=center;" parent="1" vertex="1">
          <mxGeometry x="1160" y="760" width="120" height="40" as="geometry" />
        </mxCell>
        <mxCell id="-bIWdMpBVQGjIKiIp2WV-30" value="" style="endArrow=none;html=1;rounded=0;entryX=0;entryY=1;entryDx=0;entryDy=0;exitX=1;exitY=0.5;exitDx=0;exitDy=0;curved=1;" parent="1" source="-bIWdMpBVQGjIKiIp2WV-28" target="-bIWdMpBVQGjIKiIp2WV-24" edge="1">
          <mxGeometry relative="1" as="geometry">
            <mxPoint x="1140" y="740" as="sourcePoint" />
            <mxPoint x="1300" y="740" as="targetPoint" />
          </mxGeometry>
        </mxCell>
        <mxCell id="-bIWdMpBVQGjIKiIp2WV-31" value="" style="endArrow=none;html=1;rounded=0;exitX=0.5;exitY=1;exitDx=0;exitDy=0;curved=1;entryX=1;entryY=0.5;entryDx=0;entryDy=0;" parent="1" source="-bIWdMpBVQGjIKiIp2WV-24" target="-bIWdMpBVQGjIKiIp2WV-76" edge="1">
          <mxGeometry relative="1" as="geometry">
            <mxPoint x="1360" y="820" as="sourcePoint" />
            <mxPoint x="1480" y="780" as="targetPoint" />
          </mxGeometry>
        </mxCell>
        <mxCell id="-bIWdMpBVQGjIKiIp2WV-42" value="isv" style="ellipse;whiteSpace=wrap;html=1;align=center;" parent="1" vertex="1">
          <mxGeometry x="1160" y="560" width="120" height="40" as="geometry" />
        </mxCell>
        <mxCell id="-bIWdMpBVQGjIKiIp2WV-43" value="" style="endArrow=none;html=1;rounded=0;entryX=1;entryY=1;entryDx=0;entryDy=0;exitX=0;exitY=0.5;exitDx=0;exitDy=0;curved=1;" parent="1" source="-bIWdMpBVQGjIKiIp2WV-14" target="-bIWdMpBVQGjIKiIp2WV-24" edge="1">
          <mxGeometry relative="1" as="geometry">
            <mxPoint x="1580" y="570" as="sourcePoint" />
            <mxPoint x="1740" y="520" as="targetPoint" />
          </mxGeometry>
        </mxCell>
        <mxCell id="-bIWdMpBVQGjIKiIp2WV-44" value="" style="endArrow=none;html=1;rounded=0;entryX=1;entryY=0.5;entryDx=0;entryDy=0;exitX=0;exitY=0;exitDx=0;exitDy=0;curved=1;" parent="1" source="-bIWdMpBVQGjIKiIp2WV-24" target="-bIWdMpBVQGjIKiIp2WV-42" edge="1">
          <mxGeometry relative="1" as="geometry">
            <mxPoint x="1800" y="520" as="sourcePoint" />
            <mxPoint x="1960" y="480" as="targetPoint" />
          </mxGeometry>
        </mxCell>
        <mxCell id="-bIWdMpBVQGjIKiIp2WV-45" value="" style="endArrow=none;html=1;rounded=0;exitX=1;exitY=0;exitDx=0;exitDy=0;entryX=0;entryY=0.5;entryDx=0;entryDy=0;curved=1;" parent="1" source="-bIWdMpBVQGjIKiIp2WV-24" target="-bIWdMpBVQGjIKiIp2WV-16" edge="1">
          <mxGeometry relative="1" as="geometry">
            <mxPoint x="1800" y="500" as="sourcePoint" />
            <mxPoint x="2000" y="518.5699999999999" as="targetPoint" />
          </mxGeometry>
        </mxCell>
        <mxCell id="-bIWdMpBVQGjIKiIp2WV-63" value="Hace" style="shape=rhombus;perimeter=rhombusPerimeter;whiteSpace=wrap;html=1;align=center;" parent="1" vertex="1">
          <mxGeometry x="960" y="680" width="120" height="40" as="geometry" />
        </mxCell>
        <mxCell id="-bIWdMpBVQGjIKiIp2WV-64" value="" style="endArrow=none;html=1;rounded=0;entryX=0;entryY=0.5;entryDx=0;entryDy=0;curved=1;" parent="1" source="Xc1ay_7yRxXx6vF0XpAz-69" target="-bIWdMpBVQGjIKiIp2WV-63" edge="1">
          <mxGeometry relative="1" as="geometry">
            <mxPoint x="680" y="700" as="sourcePoint" />
            <mxPoint x="840" y="700" as="targetPoint" />
          </mxGeometry>
        </mxCell>
        <mxCell id="-bIWdMpBVQGjIKiIp2WV-65" value="" style="endArrow=none;html=1;rounded=0;curved=1;" parent="1" source="-bIWdMpBVQGjIKiIp2WV-63" target="-bIWdMpBVQGjIKiIp2WV-24" edge="1">
          <mxGeometry relative="1" as="geometry">
            <mxPoint x="1080" y="699.29" as="sourcePoint" />
            <mxPoint x="1220" y="730" as="targetPoint" />
          </mxGeometry>
        </mxCell>
        <mxCell id="-bIWdMpBVQGjIKiIp2WV-71" value="Posee" style="shape=rhombus;perimeter=rhombusPerimeter;whiteSpace=wrap;html=1;align=center;" parent="1" vertex="1">
          <mxGeometry x="1760" y="680" width="120" height="40" as="geometry" />
        </mxCell>
        <mxCell id="-bIWdMpBVQGjIKiIp2WV-73" value="&lt;div&gt;FormaPago&lt;/div&gt;" style="whiteSpace=wrap;html=1;align=center;" parent="1" vertex="1">
          <mxGeometry x="2240" y="680" width="120" height="40" as="geometry" />
        </mxCell>
        <mxCell id="-bIWdMpBVQGjIKiIp2WV-76" value="idOrdenEntrega" style="ellipse;whiteSpace=wrap;html=1;align=center;fontStyle=4;" parent="1" vertex="1">
          <mxGeometry x="1200" y="840" width="120" height="40" as="geometry" />
        </mxCell>
        <mxCell id="-bIWdMpBVQGjIKiIp2WV-77" value="tipoPago" style="ellipse;whiteSpace=wrap;html=1;align=center;fontStyle=4;" parent="1" vertex="1">
          <mxGeometry x="2320" y="800" width="120" height="40" as="geometry" />
        </mxCell>
        <mxCell id="-bIWdMpBVQGjIKiIp2WV-78" value="" style="endArrow=none;html=1;rounded=0;exitX=0.5;exitY=1;exitDx=0;exitDy=0;curved=1;" parent="1" source="-bIWdMpBVQGjIKiIp2WV-73" target="-bIWdMpBVQGjIKiIp2WV-77" edge="1">
          <mxGeometry relative="1" as="geometry">
            <mxPoint x="2260" y="770" as="sourcePoint" />
            <mxPoint x="2420" y="770" as="targetPoint" />
          </mxGeometry>
        </mxCell>
        <mxCell id="-bIWdMpBVQGjIKiIp2WV-79" value="numTarjeta" style="ellipse;whiteSpace=wrap;html=1;align=center;" parent="1" vertex="1">
          <mxGeometry x="2440" y="720" width="120" height="40" as="geometry" />
        </mxCell>
        <mxCell id="-bIWdMpBVQGjIKiIp2WV-80" value="" style="endArrow=none;html=1;rounded=0;exitX=1;exitY=1;exitDx=0;exitDy=0;entryX=0;entryY=0.5;entryDx=0;entryDy=0;curved=1;" parent="1" source="-bIWdMpBVQGjIKiIp2WV-73" target="-bIWdMpBVQGjIKiIp2WV-79" edge="1">
          <mxGeometry relative="1" as="geometry">
            <mxPoint x="1960" y="820" as="sourcePoint" />
            <mxPoint x="2120" y="820" as="targetPoint" />
          </mxGeometry>
        </mxCell>
        <mxCell id="-bIWdMpBVQGjIKiIp2WV-81" value="fechaCreacion" style="ellipse;whiteSpace=wrap;html=1;align=center;" parent="1" vertex="1">
          <mxGeometry x="1440" y="840" width="120" height="40" as="geometry" />
        </mxCell>
        <mxCell id="-bIWdMpBVQGjIKiIp2WV-82" value="" style="endArrow=none;html=1;rounded=0;exitX=0.5;exitY=1;exitDx=0;exitDy=0;entryX=0;entryY=0.5;entryDx=0;entryDy=0;curved=1;" parent="1" source="-bIWdMpBVQGjIKiIp2WV-24" target="-bIWdMpBVQGjIKiIp2WV-81" edge="1">
          <mxGeometry relative="1" as="geometry">
            <mxPoint x="1590" y="840" as="sourcePoint" />
            <mxPoint x="1750" y="840" as="targetPoint" />
          </mxGeometry>
        </mxCell>
        <mxCell id="-bIWdMpBVQGjIKiIp2WV-83" value="codCVC" style="ellipse;whiteSpace=wrap;html=1;align=center;" parent="1" vertex="1">
          <mxGeometry x="2320" y="560" width="120" height="40" as="geometry" />
        </mxCell>
        <mxCell id="-bIWdMpBVQGjIKiIp2WV-84" value="fechaExp" style="ellipse;whiteSpace=wrap;html=1;align=center;" parent="1" vertex="1">
          <mxGeometry x="2440" y="640" width="120" height="40" as="geometry" />
        </mxCell>
        <mxCell id="-bIWdMpBVQGjIKiIp2WV-85" value="titular" style="ellipse;whiteSpace=wrap;html=1;align=center;" parent="1" vertex="1">
          <mxGeometry x="2040" y="760" width="120" height="40" as="geometry" />
        </mxCell>
        <mxCell id="-bIWdMpBVQGjIKiIp2WV-86" value="tipoTarjeta" style="ellipse;whiteSpace=wrap;html=1;align=center;" parent="1" vertex="1">
          <mxGeometry x="2160" y="560" width="120" height="40" as="geometry" />
        </mxCell>
        <mxCell id="-bIWdMpBVQGjIKiIp2WV-87" value="montoTotal" style="ellipse;whiteSpace=wrap;html=1;align=center;" parent="1" vertex="1">
          <mxGeometry x="2160" y="800" width="120" height="40" as="geometry" />
        </mxCell>
        <mxCell id="-bIWdMpBVQGjIKiIp2WV-88" value="cambio" style="ellipse;whiteSpace=wrap;html=1;align=center;" parent="1" vertex="1">
          <mxGeometry x="2040" y="600" width="120" height="40" as="geometry" />
        </mxCell>
        <mxCell id="-bIWdMpBVQGjIKiIp2WV-89" style="edgeStyle=orthogonalEdgeStyle;rounded=0;orthogonalLoop=1;jettySize=auto;html=1;exitX=0.5;exitY=1;exitDx=0;exitDy=0;curved=1;" parent="1" source="-bIWdMpBVQGjIKiIp2WV-85" target="-bIWdMpBVQGjIKiIp2WV-85" edge="1">
          <mxGeometry relative="1" as="geometry" />
        </mxCell>
        <mxCell id="-bIWdMpBVQGjIKiIp2WV-90" value="" style="endArrow=none;html=1;rounded=0;exitX=0.5;exitY=0;exitDx=0;exitDy=0;entryX=0.5;entryY=1;entryDx=0;entryDy=0;curved=1;" parent="1" source="-bIWdMpBVQGjIKiIp2WV-87" target="-bIWdMpBVQGjIKiIp2WV-73" edge="1">
          <mxGeometry relative="1" as="geometry">
            <mxPoint x="2150" y="890" as="sourcePoint" />
            <mxPoint x="2310" y="890" as="targetPoint" />
          </mxGeometry>
        </mxCell>
        <mxCell id="-bIWdMpBVQGjIKiIp2WV-91" value="" style="endArrow=none;html=1;rounded=0;exitX=1;exitY=0.5;exitDx=0;exitDy=0;entryX=0;entryY=1;entryDx=0;entryDy=0;curved=1;" parent="1" source="-bIWdMpBVQGjIKiIp2WV-85" target="-bIWdMpBVQGjIKiIp2WV-73" edge="1">
          <mxGeometry relative="1" as="geometry">
            <mxPoint x="2090" y="800" as="sourcePoint" />
            <mxPoint x="2250" y="800" as="targetPoint" />
          </mxGeometry>
        </mxCell>
        <mxCell id="-bIWdMpBVQGjIKiIp2WV-92" value="" style="endArrow=none;html=1;rounded=0;exitX=1;exitY=0;exitDx=0;exitDy=0;entryX=0;entryY=0.5;entryDx=0;entryDy=0;curved=1;" parent="1" source="-bIWdMpBVQGjIKiIp2WV-73" target="-bIWdMpBVQGjIKiIp2WV-84" edge="1">
          <mxGeometry relative="1" as="geometry">
            <mxPoint x="2490" y="820" as="sourcePoint" />
            <mxPoint x="2650" y="820" as="targetPoint" />
          </mxGeometry>
        </mxCell>
        <mxCell id="-bIWdMpBVQGjIKiIp2WV-93" value="" style="endArrow=none;html=1;rounded=0;exitX=1;exitY=0.5;exitDx=0;exitDy=0;entryX=0;entryY=0;entryDx=0;entryDy=0;curved=1;" parent="1" source="-bIWdMpBVQGjIKiIp2WV-88" target="-bIWdMpBVQGjIKiIp2WV-73" edge="1">
          <mxGeometry relative="1" as="geometry">
            <mxPoint x="2070" y="810" as="sourcePoint" />
            <mxPoint x="2230" y="810" as="targetPoint" />
          </mxGeometry>
        </mxCell>
        <mxCell id="-bIWdMpBVQGjIKiIp2WV-94" value="" style="endArrow=none;html=1;rounded=0;exitX=1;exitY=0.5;exitDx=0;exitDy=0;entryX=0.5;entryY=0;entryDx=0;entryDy=0;curved=1;" parent="1" source="-bIWdMpBVQGjIKiIp2WV-86" target="-bIWdMpBVQGjIKiIp2WV-73" edge="1">
          <mxGeometry relative="1" as="geometry">
            <mxPoint x="2030" y="850" as="sourcePoint" />
            <mxPoint x="2190" y="850" as="targetPoint" />
          </mxGeometry>
        </mxCell>
        <mxCell id="-bIWdMpBVQGjIKiIp2WV-95" value="" style="endArrow=none;html=1;rounded=0;entryX=0;entryY=0.5;entryDx=0;entryDy=0;exitX=0.5;exitY=0;exitDx=0;exitDy=0;curved=1;" parent="1" source="-bIWdMpBVQGjIKiIp2WV-73" target="-bIWdMpBVQGjIKiIp2WV-83" edge="1">
          <mxGeometry relative="1" as="geometry">
            <mxPoint x="2320" y="660" as="sourcePoint" />
            <mxPoint x="2480" y="660" as="targetPoint" />
          </mxGeometry>
        </mxCell>
        <mxCell id="xWDV7QGPbUX6yp1tn5Zi-4" value="" style="endArrow=none;html=1;rounded=0;exitX=1;exitY=0.5;exitDx=0;exitDy=0;entryX=0;entryY=0.5;entryDx=0;entryDy=0;" parent="1" source="-bIWdMpBVQGjIKiIp2WV-24" target="-bIWdMpBVQGjIKiIp2WV-71" edge="1">
          <mxGeometry relative="1" as="geometry">
            <mxPoint x="1530" y="699.5" as="sourcePoint" />
            <mxPoint x="1690" y="699.5" as="targetPoint" />
          </mxGeometry>
        </mxCell>
        <mxCell id="xWDV7QGPbUX6yp1tn5Zi-5" value="" style="endArrow=none;html=1;rounded=0;entryX=0;entryY=0.5;entryDx=0;entryDy=0;" parent="1" source="-bIWdMpBVQGjIKiIp2WV-71" target="-bIWdMpBVQGjIKiIp2WV-73" edge="1">
          <mxGeometry relative="1" as="geometry">
            <mxPoint x="1880" y="699.5" as="sourcePoint" />
            <mxPoint x="2200" y="699.5" as="targetPoint" />
          </mxGeometry>
        </mxCell>
        <mxCell id="xWDV7QGPbUX6yp1tn5Zi-6" value="1:N" style="text;strokeColor=none;fillColor=none;spacingLeft=4;spacingRight=4;overflow=hidden;rotatable=0;points=[[0,0.5],[1,0.5]];portConstraint=eastwest;fontSize=12;" parent="1" vertex="1">
          <mxGeometry x="690" y="485" width="30" height="30" as="geometry" />
        </mxCell>
        <mxCell id="xWDV7QGPbUX6yp1tn5Zi-7" value="1:1" style="text;strokeColor=none;fillColor=none;spacingLeft=4;spacingRight=4;overflow=hidden;rotatable=0;points=[[0,0.5],[1,0.5]];portConstraint=eastwest;fontSize=12;" parent="1" vertex="1">
          <mxGeometry x="1290" y="485" width="30" height="30" as="geometry" />
        </mxCell>
        <mxCell id="xWDV7QGPbUX6yp1tn5Zi-8" value="1:1" style="text;strokeColor=none;fillColor=none;spacingLeft=4;spacingRight=4;overflow=hidden;rotatable=0;points=[[0,0.5],[1,0.5]];portConstraint=eastwest;fontSize=12;" parent="1" vertex="1">
          <mxGeometry x="1805" y="650" width="30" height="30" as="geometry" />
        </mxCell>
      </root>
    </mxGraphModel>
  </diagram>
</mxfile>
